Avatar (2009) 480p BRRiP XviD AC3 ViSiON  
http://torrents.thepiratebay.org/5511786/Avatar_(2009)_480p_BRRiP_XviD_AC3_ViSiON.5511786.TPB.torrent

Avatar 720p Bluray x264-CBGB  
http://torrents.thepiratebay.org/5511225/Avatar_720p_Bluray_x264-CBGB.5511225.TPB.torrent

Avatar 2009 1080p BluRay X264-AMIABLE  
http://torrents.thepiratebay.org/5511739/Avatar_2009_1080p_BluRay_X264-AMIABLE.5511739.TPB.torrent


Avatar (2009) PROPER DVDSCR XviD-MAX 

Format                           : AVI
Format/Info                      : Audio Video Interleave
File size                        : 1.37 GiB
Duration                         : 2h 36mn
Overall bit rate                 : 1 257 Kbps
Writing application              : VirtualDubMod 1.5.10.2 (build 2542/release)
Writing library                  : VirtualDubMod build 2542/release
Original source form             : MAX TORRENTZ
Copyright                        : SIGISMUNT

Video
ID                               : 0
Format                           : MPEG-4 Visual
Format profile                   : AdvancedSimple@L5
Format settings, BVOP            : Yes
Format settings, QPel            : No
Format settings, GMC             : No warppoints
Format settings, Matrix          : Default (H.263)
Muxing mode                      : Packed bitstream
Codec ID                         : XVID
Codec ID/Hint                    : XviD
Duration                         : 2h 36mn
Bit rate                         : 1 135 Kbps
Width                            : 704 pixels
Height                           : 384 pixels
Display aspect ratio             : 16:9
Frame rate                       : 23.976 fps
Resolution                       : 24 bits
Colorimetry                      : 4:2:0
Scan type                        : Progressive
Bits/(Pixel*Frame)               : 0.173
Stream size                      : 1.23 GiB (90%)
Writing library                  : XviD 1.3.0.dev55

Audio
ID                               : 1
Format                           : MPEG Audio
Format version                   : Version 1
Format profile                   : Layer 3
Codec ID                         : 55
Codec ID/Hint                    : MP3
Duration                         : 2h 36mn
Bit rate mode                    : Constant
Bit rate                         : 128 Kbps
Channel(s)                       : 2 channels
Sampling rate                    : 44.1 KHz
Resolution                       : 16 bits
Stream size                      : 126 MiB (9%)
Alignment                        : Aligned on interleaves
Interleave, duration             : 26 ms (0.63 video frame)
Interleave, preload duration     : 517 ms
Writing library                  : LAME3.98.2 
http://www.imdb.com/title/tt0499549/ 

Screens: 
http://www.postimg.com/image/12000/11017.jpg 
http://www.postimg.com/image/12000/11018.jpg 
http://www.postimg.com/image/12000/11019.jpg  
http://www.postimg.com/image/12000/11020.jpg

ScreenCaps: 
http://www.postimg.com/image/12000/11021.jpg

Avatar (2009) PROPER DVDSCR XviD-MAX Torrent Free Download 
http://thepiratebay.org/user/extremezone/0/7